<svg viewBox="0 0 511 511.99999" xmlns="http://www.w3.org/2000/svg"><path d="m180.304688 456.445312c3.847656-3.847656 5.285156-9.523437 3.769531-14.890624l-20.503907-72.71875-27.539062 27.539062 22.953125 81.390625zm0 0" fill="#ffc265"/><path d="m150.675781 422.414062-.003906-.015624 21.84375-21.84375-8.945313-31.71875-27.539062 27.539062 8.949219 31.738281zm0 0" fill="#ffb541"/><path d="m159.535156 477.191406-22.953125-81.390625-26.597656 26.597657 22.953125 81.390624zm0 0" fill="#ffcf86"/><path d="m125.304688 465.988281c-4.453126-6.007812-3.835938-14.367187 1.453124-19.652343l18.777344-18.78125-8.957031-31.753907-26.59375 26.597657 22.953125 81.390624 11.703125-11.703124zm0 0" fill="#ffc265"/><path d="m126.597656 510.152344 6.671875-6.671875-22.953125-81.390625-33.445312 33.445312 39.792968 53.699219c2.425782 3.277344 7.136719 3.714844 9.933594.917969zm0 0" fill="#ffb541"/><path d="m56.058594 332.199219c3.847656-3.847657 9.515625-5.292969 14.875-3.785157l72.609375 20.394532-27.539063 27.539062-81.265625-22.828125zm0 0" fill="#ffc265"/><path d="m76.160156 352.78125 17.878906-17.878906-23.105468-6.488282c-5.359375-1.503906-11.027344-.0625-14.875 3.785157l-21.324219 21.320312 31.761719 8.921875zm0 0" fill="#ffb541"/><path d="m35.476562 352.78125 81.265626 22.828125-27.058594 27.046875-81.265625-22.828125zm0 0" fill="#ffcf86"/><path d="m43.035156 385.90625 6.078125-6.078125h-.007812l18.128906-18.125-31.757813-8.921875-27.058593 27.042969 32.910156 9.246093c.246094-1.160156.804687-2.261718 1.707031-3.164062zm0 0" fill="#ffc265"/><path d="m2.351562 385.90625 6.671876-6.671875 81.265624 22.828125-33.445312 33.445312-53.589844-39.679687c-3.269531-2.421875-3.699218-7.128906-.902344-9.921875zm0 0" fill="#ffc265"/><path d="m43.941406 395.828125c-2.433594-1.800781-3.289062-4.863281-2.421875-7.464844l-32.496093-9.128906-6.671876 6.671875c-2.796874 2.792969-2.367187 7.5.902344 9.921875l53.589844 39.679687 17.308594-17.308593zm0 0" fill="#ffb541"/><path d="m187.167969 302.125 211.800781-211.804688 22.578125 22.578126-211.800781 211.804687zm0 0" fill="#9c5e5e"/><path d="m224.859375 294.65625 189.226563-189.226562-15.113282-15.109376-211.800781 211.804688 22.578125 22.578125 15.109375-15.113281c-4.125-4.121094-4.125-10.808594 0-14.933594zm0 0" fill="#855151"/><path d="m142.011719 347.28125-87.15625 87.160156c-6.238281 6.234375-6.238281 16.339844 0 22.578125 6.234375 6.234375 16.339843 6.234375 22.578125 0l87.15625-87.160156zm0 0" fill="#9c5e5e"/><path d="m85.078125 434.441406 72.046875-72.050781-15.113281-15.109375-87.15625 87.160156c-6.238281 6.234375-6.238281 16.34375 0 22.578125 6.234375 6.234375 16.339843 6.234375 22.578125 0l4.5-4.5c-2.785156-5.917969-1.746094-13.1875 3.144531-18.078125zm0 0" fill="#855151"/><path d="m187.664062 348.636719-24.429687-24.429688c-6.4375-6.433593-16.871094-6.433593-23.304687 0-6.4375 6.4375-6.4375 16.871094 0 23.304688l24.429687 24.433593c6.433594 6.433594 16.871094 6.433594 23.304687 0 6.4375-6.4375 6.433594-16.871093 0-23.308593zm0 0" fill="#685e68"/><path d="m165.613281 347.511719c-6.035156-6.03125-6.414062-15.582031-1.128906-22.054688l-1.25-1.25c-6.4375-6.4375-16.871094-6.4375-23.304687 0-6.4375 6.4375-6.4375 16.871094 0 23.304688l24.429687 24.429687c6.433594 6.4375 16.871094 6.4375 23.304687 0 .402344-.398437.777344-.816406 1.128907-1.246094zm0 0" fill="#554e56"/><path d="m210.972656 325.332031-24.433594-24.429687c-6.433593-6.4375-16.921874-6.378906-23.425781.125-6.503906 6.503906-6.5625 16.992187-.125 23.425781l24.429688 24.433594c6.4375 6.433593 16.925781 6.378906 23.429687-.125 6.503906-6.503907 6.558594-16.992188.125-23.429688zm0 0" fill="#685e68"/><path d="m188.671875 324.453125c-6.082031-6.078125-6.359375-15.773437-.890625-22.308594l-1.242188-1.242187c-6.433593-6.4375-16.921874-6.378906-23.425781.125-6.503906 6.503906-6.5625 16.992187-.125 23.425781l24.429688 24.433594c6.4375 6.433593 16.925781 6.378906 23.429687-.125.359375-.359375.691406-.734375 1.011719-1.117188zm0 0" fill="#554e56"/><path d="m413.742188 62.585938-16.695313 16.691406c-3.722656 3.726562-3.839844 9.648437-.257813 13.234375l22.574219 22.570312c3.582031 3.582031 9.503907 3.46875 13.230469-.257812l16.691406-16.691407zm0 0" fill="#685e68"/><path d="m424.347656 92.511719c-3.585937-3.582031-3.46875-9.507813.253906-13.234375l2.917969-2.914063-13.777343-13.777343-16.695313 16.691406c-3.722656 3.726562-3.839844 9.648437-.253906 13.234375l22.570312 22.570312c3.582031 3.582031 9.507813 3.46875 13.230469-.257812l7.035156-7.035157zm0 0" fill="#554e56"/><path d="m475.511719 114.542969 36.03125-103.570313c1.941406-5.585937-5.058594-12.582031-10.640625-10.640625l-103.574219 36.027344c-4.175781 1.453125-4.421875 7.179687-.476563 11.121094l67.539063 67.542969c3.945313 3.945312 9.667969 3.695312 11.121094-.480469zm0 0" fill="#685e68"/><path d="m509.042969 2.828125c-2.207031-2.203125-5.351563-3.46875-8.144531-2.496094l-103.570313 36.027344c-4.175781 1.457031-4.421875 7.179687-.480469 11.121094l33.773438 33.773437zm0 0" fill="#554e56"/></svg>