<svg version="1.1" id="Layer_1" xmlns="http://www.w3.org/2000/svg" xmlns:xlink="http://www.w3.org/1999/xlink" x="0px" y="0px" viewBox="0 0 511.999 511.999" style="enable-background:new 0 0 511.999 511.999;" xml:space="preserve"><path style="fill:#FACE17;" d="M314.057,200.46l-54.653-29.891l-29.891-54.653c-2.939-5.375-8.577-8.717-14.703-8.717 s-11.764,3.343-14.703,8.717l-29.891,54.653l-54.653,29.891c-5.374,2.939-8.717,8.577-8.717,14.703 c0,6.126,3.343,11.764,8.717,14.703l54.653,29.891l29.891,54.653c2.939,5.375,8.577,8.717,14.703,8.717s11.764-3.343,14.703-8.717 l29.891-54.653l54.653-29.891c5.375-2.939,8.717-8.577,8.717-14.703C322.774,209.037,319.431,203.4,314.057,200.46z"/><path style="fill:#FAD52D;" d="M503.282,368.663l-67.785-37.074l-37.074-67.786c-2.94-5.375-8.577-8.717-14.703-8.717 c-6.126,0-11.764,3.343-14.703,8.717l-37.074,67.786l-67.786,37.074c-5.374,2.939-8.717,8.577-8.717,14.703 c0,6.126,3.343,11.764,8.717,14.703l67.786,37.074l37.074,67.785c2.94,5.375,8.577,8.717,14.703,8.717 c6.126,0,11.764-3.343,14.703-8.717l37.074-67.785l67.785-37.074c5.375-2.94,8.717-8.577,8.717-14.703 C511.999,377.24,508.657,371.602,503.282,368.663z"/><g><path style="fill:#E9C013;" d="M460.826,69.239l-30.229-16.533l-16.532-30.228c-2.94-5.375-8.577-8.718-14.704-8.718 c-6.126,0-11.764,3.343-14.703,8.717l-16.533,30.23l-30.23,16.533c-5.374,2.939-8.717,8.577-8.717,14.703 s3.343,11.764,8.718,14.704l30.228,16.532l16.533,30.229c2.94,5.374,8.577,8.717,14.703,8.717c6.126,0,11.764-3.343,14.704-8.718 l16.532-30.228l30.228-16.532c5.375-2.939,8.718-8.577,8.718-14.704C469.544,77.817,466.202,72.178,460.826,69.239z"/><path style="fill:#E9C013;" d="M167.399,397.711l-30.23-16.533l-16.533-30.229c-2.939-5.374-8.577-8.717-14.703-8.717 c-6.126,0-11.764,3.343-14.704,8.718l-16.532,30.228l-30.229,16.533c-5.375,2.94-8.717,8.577-8.717,14.703 c0,6.126,3.343,11.764,8.718,14.704l30.228,16.532l16.532,30.228c2.939,5.375,8.577,8.718,14.704,8.718 c6.126,0,11.764-3.343,14.703-8.717l16.533-30.23l30.228-16.532c5.375-2.94,8.718-8.577,8.718-14.704 C176.116,406.289,172.774,400.651,167.399,397.711z"/></g><path style="fill:#FAD52D;" d="M131.647,55.832L101.417,39.3L84.885,9.07c-2.939-5.375-8.577-8.717-14.703-8.717 c-6.126,0-11.764,3.343-14.704,8.718L38.946,39.3L8.717,55.832C3.343,58.771,0,64.41,0,70.536S3.343,82.3,8.718,85.24l30.228,16.532 l16.532,30.228c2.939,5.375,8.577,8.718,14.704,8.718c6.126,0,11.764-3.343,14.703-8.717l16.533-30.229l30.228-16.532 c5.375-2.939,8.718-8.577,8.718-14.704C140.364,64.41,137.022,58.771,131.647,55.832z"/><path style="fill:#FACE17;" d="M131.647,55.832L101.417,39.3L84.885,9.07c-2.939-5.374-8.577-8.717-14.703-8.717v140.364 c6.126,0,11.764-3.343,14.703-8.717l16.533-30.229l30.228-16.532c5.375-2.939,8.718-8.577,8.718-14.704 C140.364,64.41,137.022,58.771,131.647,55.832z"/><path style="fill:#E9C013;" d="M314.057,200.46l-54.653-29.891l-29.891-54.653c-2.939-5.375-8.577-8.717-14.703-8.717v215.928 c6.126,0,11.764-3.343,14.703-8.717l29.891-54.653l54.653-29.891c5.375-2.939,8.717-8.577,8.717-14.703 C322.774,209.037,319.431,203.4,314.057,200.46z"/><path style="fill:#D9B314;" d="M460.826,69.239l-30.229-16.533l-16.532-30.228c-2.94-5.375-8.577-8.718-14.704-8.718l0,0v140.365 l0,0c6.126,0,11.764-3.343,14.704-8.718l16.532-30.228l30.228-16.532c5.375-2.939,8.718-8.577,8.718-14.704 C469.544,77.817,466.202,72.178,460.826,69.239z"/><path style="fill:#FACE17;" d="M503.282,368.663l-67.785-37.074l-37.074-67.786c-2.94-5.375-8.577-8.717-14.703-8.717l0,0v256.559 l0,0c6.126,0,11.764-3.343,14.703-8.717l37.074-67.785l67.785-37.074c5.375-2.94,8.717-8.577,8.717-14.703 C511.999,377.241,508.657,371.602,503.282,368.663z"/><path style="fill:#D9B314;" d="M167.399,397.711l-30.23-16.533l-16.533-30.229c-2.939-5.374-8.577-8.717-14.703-8.717 c-0.221,0-0.441,0.013-0.66,0.022v140.32c0.22,0.009,0.439,0.022,0.66,0.022c6.126,0,11.764-3.343,14.703-8.717l16.533-30.23 l30.228-16.532c5.375-2.94,8.718-8.577,8.718-14.704C176.116,406.289,172.774,400.651,167.399,397.711z"/></svg>