<svg version="1.1" id="Capa_1" xmlns="http://www.w3.org/2000/svg" xmlns:xlink="http://www.w3.org/1999/xlink" x="0px" y="0px" viewBox="0 0 949.245 949.245" style="enable-background:new 0 0 949.245 949.245;" xml:space="preserve"><g><g><g><path d="M710.109,316.946l-85.333,85.127c25.791,39.83,40.775,87.31,40.775,138.294c0,140.715-114.073,254.788-254.788,254.788 c-140.716,0-254.788-114.073-254.788-254.788c0-140.716,114.072-254.788,254.788-254.788c51.038,0,98.563,15.017,138.42,40.858 l82.346-82.146l-8.48-53.444c-32.136-19.56-67.183-34.809-104.337-44.953v-15.193c0-59.522-48.425-107.947-107.948-107.947 c-59.522,0-107.947,48.425-107.947,107.947v15.193C129.379,193.245,1.885,351.915,1.885,540.367 c0,225.815,183.061,408.878,408.879,408.878c225.818,0,408.878-183.062,408.878-408.878c0-79.215-22.528-153.166-61.523-215.802 L710.109,316.946z M352.816,130.7c0-31.952,25.995-57.947,57.948-57.947c31.952,0,57.947,25.995,57.947,57.947v4.867 c-18.931-2.686-38.276-4.079-57.947-4.079c-19.672,0-39.018,1.394-57.948,4.079V130.7z"/><path d="M404.349,474.466l2.294-5.834l4.438-4.428l23.438-23.382c-7.624-1.813-15.577-2.778-23.755-2.778 c-56.512,0-102.323,45.812-102.323,102.323s45.812,102.32,102.323,102.32c56.511,0,102.323-45.811,102.323-102.32 c0-8.279-0.99-16.326-2.847-24.036l-23.638,23.58l-4.415,4.403l-5.805,2.278l-43.972,17.271 c-4.114,1.613-8.428,2.436-12.82,2.436c-11.568,0-22.378-5.729-28.916-15.327c-6.514-9.561-7.871-21.71-3.63-32.493 L404.349,474.466z"/><path d="M934.695,115.932l-89.124-14.143l-14.144-89.125C830.177,4.791,823.46,0,816.534,0c-3.721,0-7.5,1.381-10.527,4.408 L659.599,150.814c-6.793,6.793-9.922,16.428-8.416,25.915l5.915,37.273l6.461,40.711l-89.934,89.717l-109.12,108.853 l-32.237,32.157l-17.306,44.017c-1.353,3.438,1.313,6.842,4.627,6.842c0.603,0,1.228-0.113,1.854-0.358l43.973-17.271 l32.312-32.234l109.074-108.81l92.929-92.702l34.636,5.496l36.263,5.755c1.567,0.249,3.141,0.371,4.704,0.371 c7.892,0,15.541-3.116,21.211-8.787L942.95,141.352C951.616,132.689,946.798,117.853,934.695,115.932z"/></g></g></g></svg>