<svg viewBox="0 0 48 48" xmlns="http://www.w3.org/2000/svg"><g id="Jogging"><path d="m6.858 14.477 20.221 20.983a5.032 5.032 0 0 0 3.61 1.54h13.116a5 5 0 0 0 -2.411-3.015l-4.747-2.585a6.988 6.988 0 0 1 -3.6-5.406c-.017 0-.032.01-.05.01h-3.997a1 1 0 0 1 0-2h4v-2.004h-4a1 1 0 0 1 0-2h4v-2h-4a1 1 0 0 1 0-2h4v-2a3 3 0 0 0 -3-3h-6a3 3 0 0 1 -3-3v-1a3 3 0 0 0 -3-3h-.131a3.011 3.011 0 0 0 -2.193.953l-8.854 9.486z"/><path d="m25.638 36.846-20.127-20.886a7 7 0 0 0 .689 8.828l14.537 15.2a13.059 13.059 0 0 0 9.391 4.012h8.872a5.006 5.006 0 0 0 5-5h-13.311a7.035 7.035 0 0 1 -5.051-2.154z"/><path d="m18 43h-13a1 1 0 0 1 0-2h13a1 1 0 0 1 0 2z"/><path d="m13 38h-8a1 1 0 0 1 0-2h8a1 1 0 0 1 0 2z"/><path d="m8 33h-3a1 1 0 0 1 0-2h3a1 1 0 0 1 0 2z"/></g></svg>