<svg id="Capa_1" enable-background="new 0 0 512 512" viewBox="0 0 512 512" xmlns="http://www.w3.org/2000/svg"><g><path d="m137.287 360.81c-2.862 0-5.612-1.597-6.951-4.341l-51.215-105.007c-1.87-3.836-.278-8.461 3.557-10.332 3.84-1.868 8.462-.276 10.332 3.557l51.215 105.007c1.87 3.836.278 8.461-3.557 10.332-1.09.531-2.245.784-3.381.784z" fill="#dcd2cd"></path><path d="m93.387 322.27 81.963 168.049c1.245 2.552 4.323 3.612 6.876 2.367l56.445-27.53c2.552-1.245 3.612-4.323 2.367-6.876l-81.963-168.049c-1.245-2.552-4.323-3.612-6.876-2.367l-56.445 27.53c-2.552 1.245-3.612 4.323-2.367 6.876z" fill="#d97b7b" style="fill: rgb(255, 107, 107);"></path><path d="m114.236 235.39-19.87-40.739c-1.253-2.57-3.924-4.156-6.767-4.043-2.857.115-5.378 1.909-6.423 4.571l-9.317 23.768-24.464-7.29c-2.74-.818-5.706.062-7.557 2.244-1.85 2.181-2.234 5.252-.981 7.821l19.866 40.731c.88 1.813 2.493 3.182 4.424 3.757l28.149 8.388c.955.284 1.924.419 2.88.419 4.114 0 8.008-2.507 9.571-6.492l10.72-27.346c.736-1.872.65-3.984-.231-5.789z" fill="#f3d69e" style="fill: rgb(243, 221, 160);"></path><path d="m277.531 0h23.706c72.911 0 132.018 59.106 132.018 132.018v310.251h-287.742v-310.251c0-72.912 59.107-132.018 132.018-132.018z" fill="#766d78"></path><path d="m301.237 0s-25.045.015-25.714.025c71.985 1.074 130.01 59.752 130.01 131.992v310.252h27.721v-310.251c.001-72.912-59.105-132.018-132.017-132.018z" fill="#655e67"></path><g fill="#ebae9d"><path d="m453.52 128.988-73.431 56.991 2.323 51.688c86.093-5.204 79.891-84.598 76.514-106.519-.392-2.548-3.369-3.741-5.406-2.16z" fill="#ebae9d"></path><path d="m125.248 128.988 73.431 56.991-2.323 51.688c-86.093-5.204-79.891-84.598-76.514-106.519.392-2.548 3.369-3.741 5.406-2.16z" fill="#ebae9d"></path></g><path d="m309.284 321.452c-12.49-1.627-27.31-1.627-39.8 0-25.616 3.337-48.949 1.684-69.479 13.173-96.442 53.975-131.001 177.375-49.465 177.375h104.076l34.768-10 34.769 10h104.076c81.537 0 46.977-123.401-49.466-177.375-20.531-11.49-43.864-9.836-69.479-13.173z" fill="#61aab8" style="fill: rgb(111, 184, 97);"></path><path d="m310.031 315.255c-11.023-1.436-24.603-5.403-36.052-4.304 1.523.146 3.027.31 4.494.502 145.948 19.013 217.837 200.547 118.944 200.547h30.811c81.537 0 46.977-123.401-49.466-177.375-23.66-8.223-43.116-16.033-68.731-19.37z" fill="#5595a2" style="fill: rgb(84, 160, 90);"></path><path d="m254.616 382.601v129.399h69.537v-129.399c0-5.585 2.915-10.758 7.694-13.65 14.118-8.544 32.386-20.746 46.916-34.326-20.531-11.49-43.861-19.835-69.478-23.173-12.49-1.627-27.31-1.627-39.8 0-25.617 3.337-48.949 11.683-69.479 23.173 14.53 13.58 32.8 25.782 46.917 34.325 4.778 2.892 7.693 8.065 7.693 13.651z" fill="#f3d69e" style="fill: rgb(243, 221, 160);"></path><path d="m378.762 334.625c-11.979-6.704-24.503-12.104-37.473-16.15-17.054-5.314-34.879-8.349-53.026-8.227-4.986.033-10.142.305-14.284.702 1.523.146 3.027.31 4.494.502 33.312 4.34 62.764 17.149 87.209 34.332 4.539-3.575 8.962-7.311 13.08-11.159z" fill="#eec06b"></path><path d="m297.11 512v-172.269c0-4.268-3.459-7.726-7.726-7.726-4.268 0-7.726 3.459-7.726 7.726v172.269z" fill="#eec06b"></path><path d="m322.149 99.757-12.432 10.821c-11.657 10.146-29.009 10.146-40.665 0l-12.432-10.821c-3.761-3.274-8.58-5.077-13.566-5.077h-13.741c-23.077 0-41.785 18.708-41.785 41.785v102.562c0 43.512 76.393 112.093 101.857 112.093s101.857-68.581 101.857-112.093v-102.563c0-23.077-18.708-41.785-41.785-41.785h-13.741c-4.987 0-9.805 1.804-13.567 5.078z" fill="#ffcdbe"></path><path d="m355.296 95.094c8.822 7.661 14.409 18.951 14.409 31.553v102.563c0 43.512-76.393 112.093-101.857 112.093-.981 0-2.047-.114-3.172-.312 9.945 6.348 18.73 10.129 24.709 10.129 25.464 0 101.857-68.581 101.857-112.093v-102.563c0-21.094-15.635-38.528-35.946-41.37z" fill="#ebae9d"></path><g><g><path d="m341.731 214.078c-4.268 0-7.726-3.459-7.726-7.726v-4.539c0-4.268 3.459-7.726 7.726-7.726s7.726 3.459 7.726 7.726v4.539c0 4.268-3.459 7.726-7.726 7.726z" fill="#655e67"></path><path d="m355.839 184.51c-1.573 0-3.16-.479-4.531-1.473-6.71-4.869-12.44-4.871-19.154 0-3.455 2.505-8.284 1.737-10.791-1.718-2.505-3.454-1.736-8.285 1.718-10.791 12.201-8.851 25.1-8.849 37.301 0 3.454 2.506 4.222 7.337 1.717 10.792-1.512 2.083-3.87 3.19-6.26 3.19z" fill="#766d78"></path><path d="m237.038 214.078c-4.268 0-7.726-3.459-7.726-7.726v-4.539c0-4.268 3.459-7.726 7.726-7.726 4.268 0 7.726 3.459 7.726 7.726v4.539c0 4.268-3.459 7.726-7.726 7.726z" fill="#655e67"></path><path d="m222.93 184.51c-2.391 0-4.748-1.107-6.261-3.19-2.505-3.455-1.736-8.286 1.717-10.792 12.201-8.848 25.1-8.849 37.301 0 3.455 2.506 4.223 7.337 1.718 10.791-2.507 3.456-7.338 4.222-10.791 1.718-6.715-4.87-12.443-4.869-19.154 0-1.37.994-2.957 1.473-4.53 1.473z" fill="#766d78"></path></g><g fill="#ebae9d"><path d="m289.384 295.955c-9.811 0-19.623-2.3-28.567-6.898-3.795-1.951-5.29-6.609-3.338-10.404 1.953-3.795 6.612-5.288 10.404-3.338 13.665 7.026 29.34 7.025 43.003 0 3.797-1.952 8.454-.456 10.404 3.338 1.952 3.796.457 8.454-3.338 10.404-8.944 4.598-18.756 6.898-28.568 6.898z" fill="#ebae9d"></path><path d="m289.385 252.856c-3.256 0-6.51-.727-9.541-2.182-3.847-1.846-5.47-6.461-3.624-10.308 1.845-3.849 6.465-5.467 10.308-3.624 1.79.856 3.926.856 5.713 0 3.847-1.844 8.462-.223 10.308 3.624s.223 8.462-3.624 10.308c-3.031 1.455-6.286 2.182-9.54 2.182z" fill="#ebae9d"></path></g></g><path d="m360.254 410.644h-141.74c-4.268 0-7.726-3.459-7.726-7.726s3.459-7.726 7.726-7.726h141.74c4.268 0 7.726 3.459 7.726 7.726s-3.458 7.726-7.726 7.726z" fill="#766d78"></path><path d="m360.254 473.288h-141.74c-4.268 0-7.726-3.459-7.726-7.726s3.459-7.726 7.726-7.726h141.74c4.268 0 7.726 3.459 7.726 7.726s-3.458 7.726-7.726 7.726z" fill="#766d78"></path><g fill="#eec06b"><path d="m375.681 382.34c-11.346 0-20.577 9.231-20.577 20.577s9.231 20.576 20.577 20.576 20.576-9.23 20.576-20.576-9.23-20.577-20.576-20.577z" fill="#eec06b"></path><path d="m203.088 382.34c-11.346 0-20.576 9.231-20.576 20.577s9.23 20.576 20.576 20.576 20.576-9.23 20.576-20.576-9.23-20.577-20.576-20.577z" fill="#eec06b"></path><path d="m375.681 444.985c-11.346 0-20.577 9.23-20.577 20.576s9.231 20.576 20.577 20.576 20.576-9.23 20.576-20.576-9.23-20.576-20.576-20.576z" fill="#eec06b"></path><circle cx="203.088" cy="465.561" r="20.576" fill="#eec06b"></circle></g></g></svg>