<svg id="Слой_1" enable-background="new 0 0 512 512" viewBox="0 0 512 512" xmlns="http://www.w3.org/2000/svg"><g><path d="m258.2 0c-102.2-1.2-187.3 80.4-190.2 182.5-1.4 48.1 15.3 92.3 43.8 126.3 30.2 36 50.3 148.1 55.2 155 2.2 8.3 44.6 48.1 89.1 48.1s86.8-39.9 89.1-48.1c4.9-6.9 24.4-118.7 54.6-154.4 27.7-32.8 44.4-75.1 44.4-121.4-.1-103.1-83.1-186.8-186-188z" fill="#efdfca"/></g><g opacity=".1"><path d="m92.2 257.5c-7.3-8.7-13.9-18-19.7-27.8 6.7 29.6 20.4 56.6 39.2 79.2 5.9 7.1 11.5 17.1 16.6 28.7-9.8-31.8-21.9-63.3-36.1-80.1z" fill="#d3500f"/></g><g opacity=".1"><path d="m419.1 258.2c-14.1 16.7-26.1 47.8-35.8 79.4 5-11.3 10.5-21.2 16.3-28.1 19.2-22.7 33.1-49.9 39.8-79.9-5.9 10.1-12.8 19.7-20.3 28.6z" fill="#d3500f"/></g><g opacity=".1"><path d="m256 488.1c-41.5 0-81.3-30.5-95.6-46.6 3.1 12.2 5.3 20.6 6.5 22.4 2.2 8.3 44.6 48.1 89.1 48.1s86.8-39.9 89.1-48.1c1.2-1.7 3.4-10.1 6.4-22.3-14.4 16.2-54.1 46.5-95.5 46.5z" fill="#d3500f"/></g><g opacity=".1"><path d="m258.2 25.2c98.7 1.1 179.1 78.3 185.5 175.6.3-4.2.4-8.4.4-12.7 0-103.2-83-186.9-185.9-188.1-102.2-1.2-187.3 80.4-190.2 182.5-.2 6.1-.1 12.2.3 18.2 6.5-98.8 90-176.7 189.9-175.5z" fill="#d3500f"/></g><circle cx="324.7" cy="245.6" fill="#fff" r="48.6"/><circle cx="187.3" cy="245.6" fill="#fff" r="48.6"/><g opacity=".36"><path d="m282.8 251.2c0-26.8 21.8-48.6 48.6-48.6 10.3 0 19.8 3.2 27.7 8.6-8.8-8.8-20.9-14.2-34.4-14.2-26.8 0-48.6 21.8-48.6 48.6 0 16.6 8.3 31.2 20.9 39.9-8.7-8.7-14.2-20.9-14.2-34.3z" fill="#d3500f"/></g><g opacity=".36"><path d="m145.4 251.2c0-26.8 21.8-48.6 48.6-48.6 10.3 0 19.8 3.2 27.7 8.6-8.8-8.8-20.9-14.2-34.4-14.2-26.8 0-48.6 21.8-48.6 48.6 0 16.6 8.3 31.2 20.9 39.9-8.8-8.7-14.2-20.9-14.2-34.3z" fill="#d3500f"/></g><path d="m272.9 317.3c-4.3-7.4-9.7-12.8-14.2-14.7-.1 0-.1-.1-.2-.1-.8-.4-1.6-.6-2.6-.6-.9 0-1.8.1-2.6.6-.1 0-.1.1-.2.1-4.5 1.8-9.9 7.3-14.2 14.7-6.2 10.8-7.6 21.6-3 24.2s13.3-4 19.5-14.8c.2-.3.3-.6.5-.9.2.3.3.6.5.9 6.2 10.8 14.9 17.4 19.5 14.8s3.2-13.4-3-24.2z" fill="#fff"/><g opacity=".35"><path d="m234.2 339.3c.2-4.5 2.1-10.3 5.5-16.2 4.1-7.1 9.4-12.4 13.7-14.2 0 0 .1-.1.1-.1.7-.4 1.6-.6 2.5-.5.9 0 1.8.1 2.5.5.1 0 .1.1.1.1 4.3 1.8 9.6 7 13.7 14.2 3.4 5.9 5.3 11.7 5.5 16.2 2-4.4.1-13.2-4.9-22-4.3-7.4-9.7-12.8-14.2-14.7-.1 0-.1-.1-.2-.1-.8-.4-1.6-.6-2.6-.6-.9 0-1.8.1-2.6.6-.1 0-.1.1-.2.1-4.5 1.8-9.9 7.3-14.2 14.7-4.9 8.8-6.7 17.6-4.7 22z" fill="#d3500f"/></g><g><path d="m219.9 393.5h13.7v23.3h-13.7z" fill="#fff"/></g><g><path d="m258.9 393.5h13.7v23.3h-13.7z" fill="#fff"/></g><g><path d="m239.4 393.5h13.7v23.3h-13.7z" fill="#fff"/></g><g><path d="m297.9 416.8h13.5v-7.9c0-7.8-5.9-14.3-13.5-15.2z" fill="#fff"/></g><g><path d="m219.9 421.8h13.7v23.3h-13.7z" fill="#fff"/></g><g><path d="m278.4 421.8h13.7v23.3h-13.7z" fill="#fff"/></g><g><path d="m278.4 393.5h13.7v23.3h-13.7z" fill="#fff"/></g><g><path d="m297.9 421.8v23.2c7.6-.9 13.5-7.4 13.5-15.2v-7.9h-13.5z" fill="#fff"/></g><g><path d="m214.1 421.8h-13.5v7.9c0 7.8 5.9 14.3 13.5 15.2z" fill="#fff"/></g><g><path d="m258.9 421.8h13.7v23.3h-13.7z" fill="#fff"/></g><g><path d="m239.4 421.8h13.7v23.3h-13.7z" fill="#fff"/></g><g><path d="m214.1 416.8v-23.1c-7.6.9-13.5 7.4-13.5 15.2v7.9z" fill="#fff"/></g><g fill="#fff"><circle cx="143.8" cy="100" r="10.7"/><circle cx="163.3" cy="115.8" r="5"/></g></svg>