<svg viewBox="-5 0 423 423.25333" xmlns="http://www.w3.org/2000/svg"><path d="m289.785156 334.507812h-164.796875c-23.71875 0-42.941406 17.164063-42.941406 38.335938v43.582031h245.761719v-47.96875c0-18.75-17.027344-33.949219-38.023438-33.949219zm0 0" fill="#fff"/><path d="m327.808594 423.253906h-245.761719c-3.773437 0-6.828125-3.058594-6.828125-6.828125v-43.582031c0-24.902344 22.328125-45.164062 49.769531-45.164062h164.796875c24.726563 0 44.847656 18.292968 44.847656 40.777343v47.96875c0 3.769531-3.050781 6.828125-6.824218 6.828125zm-238.933594-13.652344h232.105469v-41.144531c0-14.957031-13.992188-27.125-31.191407-27.125h-164.800781c-19.914062 0-36.113281 14.136719-36.113281 31.511719zm0 0" fill="#54596e"/><path d="m247.9375 354.988281h-86.023438c-13.949218 0-25.253906-11.308593-25.253906-25.257812v-56.664063h136.53125v56.664063c0 13.949219-11.304687 25.257812-25.253906 25.257812zm0 0" fill="#ffd578"/><path d="m247.941406 361.8125h-86.027344c-17.6875 0-32.082031-14.394531-32.082031-32.082031v-56.664063c0-3.769531 3.054688-6.828125 6.828125-6.828125h136.53125c3.773438 0 6.828125 3.058594 6.828125 6.828125v56.664063c0 17.6875-14.394531 32.082031-32.078125 32.082031zm-104.453125-81.917969v49.835938c0 10.164062 8.265625 18.429687 18.425781 18.429687h86.027344c10.15625 0 18.425782-8.265625 18.425782-18.429687v-49.835938zm0 0" fill="#54596e"/><path d="m133.246094 416.425781h-67.738282c-32.339843 0-58.554687-26.214843-58.554687-58.554687v-47.257813h30.71875c52.785156 0 95.574219 42.789063 95.574219 95.574219zm0 0" fill="#bfad88"/><path d="m133.246094 423.253906h-67.738282c-36.054687 0-65.382812-29.332031-65.382812-65.382812v-47.257813c0-3.769531 3.054688-6.828125 6.828125-6.828125h30.71875c56.46875 0 102.402344 45.9375 102.402344 102.402344v10.238281c0 3.769531-3.054688 6.828125-6.828125 6.828125zm-119.464844-105.8125v40.429688c0 28.523437 23.207031 51.730468 51.726562 51.730468h60.914063v-3.414062c0-48.9375-39.816406-88.746094-88.75-88.746094zm0 0" fill="#54596e"/><path d="m204.925781 327.679688c64.09375 0 116.054688-51.960938 116.054688-116.054688 0 0-33.339844-157.011719-74.46875-157.011719h-83.171875c-41.125 0-74.464844 157.011719-74.464844 157.011719 0 64.09375 51.957031 116.054688 116.050781 116.054688zm0 0" fill="#ffd578"/><path d="m204.925781 334.507812c-67.753906 0-122.878906-55.125-122.878906-122.882812 0-.472656.046875-.953125.148437-1.414062 5.757813-27.125 36.738282-162.425782 81.144532-162.425782h83.171875c44.410156 0 75.386719 135.300782 81.148437 162.425782.101563.460937.148438.941406.148438 1.414062 0 67.757812-55.128906 122.882812-122.882813 122.882812zm-109.226562-122.175781c.382812 59.910157 49.234375 108.519531 109.226562 108.519531 59.992188 0 108.847657-48.609374 109.226563-108.515624-13.445313-62.90625-43.191406-150.894532-67.640625-150.894532h-83.171875c-24.460938 0-54.199219 87.988282-67.640625 150.890625zm0 0" fill="#54596e"/><path d="m129.832031 382.292969-34.132812-34.132813-34.132813-6.828125 13.652344-170.664062h54.613281zm0 0" fill="#ff927d"/><path d="m129.832031 389.121094c-1.773437 0-3.519531-.695313-4.824219-2l-32.675781-32.671875-32.105469-6.425781c-3.390624-.675782-5.738281-3.785157-5.464843-7.234376l13.652343-170.667968c.285157-3.546875 3.246094-6.28125 6.804688-6.28125h54.613281c3.773438 0 6.828125 3.058594 6.828125 6.828125v211.625c0 2.761719-1.660156 5.25-4.214844 6.304687-.84375.351563-1.730468.523438-2.613281.523438zm-60.976562-53.292969 28.1875 5.636719c1.316406.265625 2.53125.914062 3.484375 1.867187l22.480468 22.480469v-188.320312h-41.488281zm0 0" fill="#54596e"/><path d="m280.019531 416.425781h67.738281c32.339844 0 58.554688-26.214843 58.554688-58.554687v-47.257813h-30.71875c-52.785156 0-95.574219 42.789063-95.574219 95.574219zm0 0" fill="#bfad88"/><path d="m347.757812 423.253906h-67.738281c-3.773437 0-6.828125-3.058594-6.828125-6.828125v-10.238281c0-56.464844 45.933594-102.402344 102.402344-102.402344h30.71875c3.773438 0 6.828125 3.058594 6.828125 6.828125v47.257813c0 36.050781-29.328125 65.382812-65.382813 65.382812zm-60.910156-13.652344h60.910156c28.523438 0 51.730469-23.207031 51.730469-51.730468v-40.429688h-23.894531c-48.933594 0-88.746094 39.808594-88.746094 88.746094zm0 0" fill="#54596e"/><path d="m280.019531 382.292969 34.132813-34.132813 34.132812-6.828125-13.652344-170.664062h-54.613281zm0 0" fill="#ff927d"/><path d="m280.019531 389.121094c-.878906 0-1.765625-.171875-2.613281-.523438-2.550781-1.054687-4.214844-3.542968-4.214844-6.304687v-211.625c0-3.769531 3.054688-6.828125 6.828125-6.828125h54.613281c3.5625 0 6.519532 2.734375 6.808594 6.285156l13.652344 170.664062c.273438 3.449219-2.074219 6.5625-5.46875 7.238282l-32.105469 6.421875-32.671875 32.671875c-1.308594 1.304687-3.054687 2-4.828125 2zm6.828125-211.628906v188.320312l22.480469-22.480469c.953125-.953125 2.167969-1.601562 3.484375-1.867187l28.1875-5.636719-12.664062-158.335937zm0 0" fill="#54596e"/><path d="m232.234375 279.894531h-54.613281c-3.773438 0-6.828125-3.058593-6.828125-6.828125 0-3.769531 3.054687-6.828125 6.828125-6.828125h54.613281c3.773437 0 6.824219 3.058594 6.824219 6.828125 0 3.769532-3.050782 6.828125-6.824219 6.828125zm0 0" fill="#54596e"/><path d="m204.925781 242.347656c-73.949219 0-129.707031-30.816406-129.707031-71.679687h33.257812c0 15.308593 37.570313 37.546875 96.449219 37.546875 58.878907 0 96.449219-22.238282 96.449219-37.546875h33.257812c0 40.863281-55.757812 71.679687-129.707031 71.679687zm0 0" fill="#fff"/><path d="m204.925781 249.171875c-77.839843 0-136.53125-33.746094-136.53125-78.503906 0-3.769531 3.050781-6.828125 6.824219-6.828125h33.261719c3.773437 0 6.824219 3.058594 6.824219 6.828125 0 8.917969 31.40625 30.71875 89.621093 30.71875 58.214844 0 89.621094-21.800781 89.621094-30.71875 0-3.769531 3.054687-6.828125 6.828125-6.828125h33.257812c3.773438 0 6.828126 3.058594 6.828126 6.828125 0 44.757812-58.695313 78.503906-136.535157 78.503906zm-122.238281-71.679687c6.273438 33.042968 57.703125 58.027343 122.238281 58.027343 64.535157 0 115.96875-24.984375 122.242188-58.027343h-20.414063c-7.894531 18.925781-47.515625 37.546874-101.828125 37.546874s-93.933593-18.621093-101.824219-37.546874zm0 0" fill="#54596e"/><path d="m211.753906 20.480469h-13.652344c-64.09375 0-116.054687 51.960937-116.054687 116.054687v34.132813h245.761719v-34.132813c0-64.09375-51.960938-116.054687-116.054688-116.054687zm0 0" fill="#bfad88"/><path d="m327.808594 177.492188h-245.761719c-3.773437 0-6.828125-3.054688-6.828125-6.824219v-34.132813c0-67.757812 55.128906-122.882812 122.882812-122.882812h13.652344c67.753906 0 122.878906 55.125 122.878906 122.882812v34.132813c0 3.769531-3.050781 6.824219-6.824218 6.824219zm-238.933594-13.652344h232.105469v-27.304688c0-60.226562-49-109.226562-109.226563-109.226562h-13.652344c-60.226562 0-109.226562 49-109.226562 109.226562zm0 0" fill="#54596e"/><path d="m75.21875 136.535156h259.414062v40.957032h-259.414062zm0 0" fill="#fff"/><path d="m334.632812 184.320312h-259.414062c-3.773438 0-6.824219-3.058593-6.824219-6.828124v-40.957032c0-3.773437 3.050781-6.828125 6.824219-6.828125h259.414062c3.773438 0 6.828126 3.054688 6.828126 6.828125v40.957032c0 3.769531-3.054688 6.828124-6.828126 6.828124zm-252.585937-13.652343h245.761719v-27.308594h-245.761719zm0 0" fill="#54596e"/><path d="m184.445312 6.828125h40.960938v129.707031h-40.960938zm0 0" fill="#fff"/><path d="m225.40625 143.359375h-40.960938c-3.773437 0-6.824218-3.054687-6.824218-6.824219v-129.707031c0-3.773437 3.050781-6.828125 6.824218-6.828125h40.960938c3.773438 0 6.828125 3.054688 6.828125 6.828125v129.707031c0 3.769532-3.054687 6.824219-6.828125 6.824219zm-34.132812-13.652344h27.304687v-116.054687h-27.304687zm0 0" fill="#54596e"/><path d="m191.273438 177.492188h27.304687v75.09375h-27.304687zm0 0" fill="#a1b7ff"/><g fill="#54596e"><path d="m218.578125 259.414062h-27.304687c-3.773438 0-6.828126-3.058593-6.828126-6.828124v-75.09375c0-3.769532 3.054688-6.824219 6.828126-6.824219h27.304687c3.773437 0 6.828125 3.054687 6.828125 6.824219v75.09375c0 3.769531-3.054688 6.828124-6.828125 6.828124zm-20.476563-13.652343h13.652344v-61.441407h-13.652344zm0 0"/><path d="m157.140625 197.972656 40.960937 6.828125v-27.308593h-81.921874c0 15.082031 25.878906 20.480468 40.960937 20.480468zm0 0"/><path d="m252.714844 197.972656-40.960938 6.828125v-27.308593h81.917969c0 15.082031-25.875 20.480468-40.957031 20.480468zm0 0"/><path d="m198.101562 27.308594h13.652344v13.652344h-13.652344zm0 0"/><path d="m198.101562 54.613281h13.652344v13.652344h-13.652344zm0 0"/><path d="m198.101562 81.921875h13.652344v13.652344h-13.652344zm0 0"/><path d="m198.101562 109.226562h13.652344v13.652344h-13.652344zm0 0"/><path d="m102.527344 150.1875h13.652344v13.652344h-13.652344zm0 0"/><path d="m129.832031 150.1875h13.65625v13.652344h-13.65625zm0 0"/><path d="m163.964844 150.1875h13.65625v13.652344h-13.65625zm0 0"/><path d="m198.101562 150.1875h13.652344v13.652344h-13.652344zm0 0"/><path d="m232.234375 150.1875h13.652344v13.652344h-13.652344zm0 0"/><path d="m266.367188 150.1875h13.652343v13.652344h-13.652343zm0 0"/><path d="m293.671875 150.1875h13.65625v13.652344h-13.65625zm0 0"/></g></svg>