<svg version="1.1" id="Capa_1" xmlns="http://www.w3.org/2000/svg" xmlns:xlink="http://www.w3.org/1999/xlink" x="0px" y="0px" viewBox="0 0 461.136 461.136" style="enable-background:new 0 0 461.136 461.136;" xml:space="preserve"><path style="fill:#BFC29F;" d="M184.757,103.391h-67.598c-6.844,0-10.403,8.673-5.77,14.058c4.778,5.553,9.7,12.77,13.274,21.682 c2.659,6.628,6.81,12.542,12.556,16.32c8.537,5.613,22.949,11.048,45.2,8.049L184.757,103.391z"/><path style="fill:#9B9B6E;" d="M184.166,118.607h-26.885c-3.206,0-5.016,4.182-3.07,7.094c4.607,6.896,13.678,16.564,28.971,18.212 L184.166,118.607z"/><linearGradient id="SVGID_1_" gradientUnits="userSpaceOnUse" x1="207.3982" y1="233.798" x2="234.2482" y2="-135.8419" gradientTransform="matrix(1 0 0 -1 0 463.136)"><stop offset="0" style="stop-color:#BFC29F"/><stop offset="1" style="stop-color:#9B9B6E"/></linearGradient><path style="fill:url(#SVGID_1_);" d="M180.16,188.06c0,0,3.921,46.448-51.901,71.304c0,0-39.176,17.523-54.032,50.894 c-2.321,5.215-0.803,11.399,3.633,14.991c12.162,9.846,36.579,33.507,45.976,70.804c1.61,6.393,4.723,12.301,9.136,17.197 c14.639,16.245,51.85,45.688,121.832,32.35c21.285-4.057,41.101-14.125,56.65-29.216c18.053-17.52,38.701-45.765,43.474-85.937 c0.673-5.663-1.233-11.322-5.075-15.537c-12.225-13.411-41.75-43.832-70.979-59.03L180.16,188.06z"/><g><path style="fill:#9B9B6E;" d="M162.366,236.506l-3.615,13.483c60.492,46.4,85.95,152.344,94.126,195.946 c0.646-0.117,1.274-0.211,1.927-0.336c9.68-1.845,19.027-4.994,27.837-9.232C261,291.261,162.366,236.506,162.366,236.506z"/><path style="fill:#9B9B6E;" d="M329.113,305.675l22.309,11.215c-0.484-0.687-0.998-1.354-1.568-1.98 c-4.506-4.943-11.375-12.205-19.701-20.156l0,0c-0.002-0.002-0.004-0.004-0.007-0.006c-3.435-3.279-7.127-6.672-10.999-10.074l0,0 l0,0c-12.208-10.729-26.264-21.51-40.271-28.794l-98.715-67.82c0,0-0.001,0.003-0.003,0.008 c-4.589,12.435,2.374,31.789,12.775,48.438c7.366,11.79,23.901,25.086,36.909,29.99l85.336,32.174l-14.568,51.379l10.867,66.313 c8.868-8.608,18.352-19.819,26.279-33.745c-3.868-17.496-16.855-35.744-16.855-35.744 C325.407,331.76,327.818,316.897,329.113,305.675z"/></g><linearGradient id="SVGID_2_" gradientUnits="userSpaceOnUse" x1="250.4395" y1="437.3181" x2="292.5095" y2="-265.2818" gradientTransform="matrix(1 0 0 -1 0 463.136)"><stop offset="0" style="stop-color:#BFC29F"/><stop offset="1" style="stop-color:#9B9B6E"/></linearGradient><path style="fill:url(#SVGID_2_);" d="M339.82,183.43c0.225-2.5,0.357-5.025,0.357-7.584V83.518C340.177,37.392,302.785,0,256.659,0 l0,0c-46.125,0-83.518,37.392-83.518,83.518v92.328c0,46.126,37.393,83.518,83.518,83.518l0,0h30.131 c33.154,0,60.029-26.876,60.029-60.029v-5.171C346.82,189.367,343.939,185.257,339.82,183.43z"/><path style="fill:#FCFAFF;" d="M222.357,110.914h29.514c2.764,0,4.792,2.628,4.035,5.286c-1.309,4.596-4.35,10.953-11.357,13.816 c-4.998,2.042-10.766,1.62-15.549-0.882c-3.775-1.975-8.162-5.545-10.915-11.964C216.813,114.205,219.13,110.914,222.357,110.914z" /><g><circle style="fill:#9B9B6E;" cx="270.178" cy="146.278" r="5.088"/><circle style="fill:#9B9B6E;" cx="287.478" cy="146.278" r="5.088"/></g><g><path style="fill:#C9519C;" d="M244.424,101.756H222.29c-1.967,0-3.562-1.595-3.562-3.562v-52.54c0-2.599,2.106-4.705,4.705-4.705 l0,0c2.002,0,3.779,1.248,4.435,3.141c2.018,5.828,7.163,18.382,16.069,25.65c2.467,2.013,4.049,4.906,4.049,8.09v20.363 C247.986,100.161,246.392,101.756,244.424,101.756z"/><path style="fill:#C9519C;" d="M224.58,140.172h14.161c2.718,0,4.921,2.203,4.921,4.92l0,0c0,1.509-0.68,2.919-1.864,3.853 c-3.352,2.642-10.343,8.782-13.53,16.248c-0.646,1.511-2.165,2.456-3.808,2.456l0,0c-2.322,0-4.205-1.882-4.205-4.205v-18.946 C220.255,142.109,222.192,140.172,224.58,140.172z"/></g><path style="fill:#9B9B6E;" d="M265.808,95.434l7.004,6.957c1.355,1.347,3.549,1.332,4.887-0.033l6.831-6.975 c1.117-1.141,0.096-3.042-1.472-2.739l-4.977,1.708c-1.894,0.65-3.949,0.654-5.845,0.012l-4.973-1.684 C265.685,92.375,264.668,94.301,265.808,95.434z"/><path style="fill:#7F7D56;" d="M334.815,109.597h47.633c4.823,0,7.331,6.907,4.065,11.195c-3.366,4.423-6.834,10.17-9.354,17.268 c-1.873,5.279-4.798,9.989-8.848,12.998c-6.016,4.47-16.17,8.799-31.85,6.411L334.815,109.597z"/><g><path style="fill:#9B9B6E;" d="M280.416,259.364h6.375c33.154,0,60.029-26.876,60.029-60.029v-5.171 c0-3.203-1.303-6.081-3.384-8.196h-27.63C316.881,202.347,315.56,242.064,280.416,259.364z"/><path style="fill:#9B9B6E;" d="M343.436,185.967c-1.035-1.053-2.248-1.931-3.616-2.538c0.225-2.5,0.357-5.025,0.357-7.584V83.518 c0-35.277-21.883-65.424-52.805-77.664c9.89,13.553,23.883,44.689,23.872,112.356h-18.682c0.794,14.91,11.206,18.953,18.292,19.984 c-0.541,14.452-1.658,30.311-3.508,47.772h36.09V185.967z"/></g><g><path style="fill:#FCFAFF;" d="M321.889,110.914h-29.515c-2.764,0-4.791,2.628-4.035,5.286c1.31,4.596,4.35,10.953,11.358,13.816 c4.997,2.042,10.765,1.62,15.549-0.882c3.774-1.975,8.161-5.545,10.914-11.964C327.433,114.205,325.117,110.914,321.889,110.914z" /><path style="fill:#FCFAFF;" d="M239.845,185.967c0,0,0.939-12.41,7.992-24.136c1.752-2.914,5.953-3.002,7.725-0.1 c3.446,5.649,8.039,14.893,8.197,24.235h-23.914V185.967z"/><path style="fill:#FCFAFF;" d="M302.6,185.967c0,0,0.94-12.41,7.993-24.136c1.752-2.914,5.953-3.002,7.725-0.1 c3.445,5.649,8.039,14.893,8.197,24.235H302.6V185.967z"/></g><g><path style="fill:#B77D85;" d="M138.426,253.242c16.51,13.607,59.9,53.616,75.678,109.641l22.794-20.08 c0,0-12.267-55.184-74.532-106.297c-4.037-3.314-9.815-3.508-14.024-0.415l-9.646,7.087 C135.34,245.643,135.213,250.593,138.426,253.242z"/><path style="fill:#B77D85;" d="M304.968,271.105c-0.863,12.465-4.172,41.649-16.788,70.264l19.167,13.386 c0,0,19.189-37.259,18.018-69.233c-0.139-3.789-2.017-7.303-5.064-9.558l-9.926-7.345 C308.216,267.021,305.154,268.427,304.968,271.105z"/></g><g><path style="fill:#9D5D65;" d="M214.104,362.881l22.794-20.079c0,0-1.631-7.278-6.655-18.964 c-9.333,5.91-17.264,13.386-22.965,19.524C209.885,349.63,212.204,356.132,214.104,362.881z"/><path style="fill:#9D5D65;" d="M294.996,323.257c-1.904,5.956-4.14,12.042-6.816,18.111l19.168,13.386c0,0,3.66-7.105,7.685-17.772 C308.673,329.811,300.649,325.55,294.996,323.257z"/></g><path style="fill:#C4D5FF;" d="M203.982,460.221c31.736,2.787,99.15,2.238,127.41-47.386c2.086-3.662,2.889-7.91,2.314-12.087 c-1.24-9.042-4.963-26.271-16.064-43.256c-21.407-32.755-68.045-35.776-95.54-7.933c-16.683,16.894-34.397,45.529-35.521,91.415 C186.338,450.951,194.043,459.349,203.982,460.221z"/><path style="fill:#7E9AEF;" d="M303.607,380.969l-8.361,6.213c-1.045,0.776-2.516-0.041-2.41-1.337l1.455-17.731 c0.121-1.462-0.59-2.912-1.881-3.608c-11.955-6.458-27.061-5.941-38.988,1.877c-32.591,21.363-31.572,77.613-30.45,94.738 c30.091,0.231,72.063-5.353,97.929-33.857c-1.527-20.593-6.064-35.012-11.725-45.111 C308.056,380.156,305.445,379.605,303.607,380.969z"/><path style="fill:#9B9B6E;" d="M223.392,188.06c0,2.557,2.073,4.63,4.631,4.63h118.688c-0.523-4.151-3.203-7.624-6.891-9.26H228.023 C225.465,183.43,223.392,185.503,223.392,188.06z"/></svg>