<svg id="Capa_1" enable-background="new 0 0 512 512" viewBox="0 0 512 512" xmlns="http://www.w3.org/2000/svg"><g><path d="m383.175 169.869c-4.286-4.925-6.328-11.376-5.357-17.904l4.411-29.645c8.492-57.075-33.001-110.814-94.097-120.011-20.435-3.077-43.8-3.081-64.263 0-61.096 9.197-102.589 62.936-94.097 120.011l4.411 29.645c.971 6.527-1.071 12.979-5.357 17.904-4.265 4.902-6.629 10.997-6.005 17.279l2.788 28.093c1.218 12.277 11.965 22.179 25.206 22.393.17.003.339.005.509.006 12.318.072 22.916 8.056 25.036 19.353l7.764 41.361c3.249 17.311 14.478 26.084 27.609 26.084h88.532c13.131 0 24.36-8.772 27.609-26.084l7.764-41.361c2.12-11.297 12.718-19.281 25.036-19.353.17-.001.339-.003.509-.006 13.241-.214 23.988-10.117 25.206-22.393l2.788-28.093c.626-6.282-1.737-12.376-6.002-17.279z" fill="#dbedff"/><path d="m257.783 302.84-7.764-41.982c-2.12-11.467-12.718-19.571-25.036-19.644-.17-.001-.339-.003-.509-.006-13.241-.217-23.988-10.269-25.206-22.73l-2.788-28.515c-.624-6.377 1.74-12.563 6.005-17.539 4.286-4.999 6.328-11.547 5.357-18.173l-4.411-30.091c-8.278-56.475 30.947-109.724 89.524-121.017-1.594-.306-3.199-.589-4.822-.833-20.435-3.077-43.8-3.081-64.263 0-61.096 9.197-102.589 62.936-94.097 120.011l4.411 29.645c.971 6.527-1.071 12.979-5.357 17.904-4.265 4.902-6.629 10.997-6.005 17.279l2.788 28.093c1.218 12.277 11.965 22.179 25.206 22.393.17.003.339.005.509.006 12.318.072 22.916 8.056 25.036 19.353l7.764 41.361c3.249 17.311 14.478 26.084 27.609 26.084h58.342c-5.95-4.334-10.433-11.539-12.293-21.599z" fill="#b5dcff"/><g><path d="m214.961 332.165c-4.267 0-7.726-3.459-7.726-7.726v-17.994c0-4.268 3.459-7.726 7.726-7.726s7.726 3.459 7.726 7.726v17.994c.001 4.267-3.458 7.726-7.726 7.726z" fill="#8bcaff"/></g><g><path d="m242.321 332.165c-4.267 0-7.726-3.459-7.726-7.726v-17.994c0-4.268 3.459-7.726 7.726-7.726s7.726 3.459 7.726 7.726v17.994c0 4.267-3.459 7.726-7.726 7.726z" fill="#8bcaff"/></g><g><path d="m269.68 332.165c-4.267 0-7.726-3.459-7.726-7.726v-17.994c0-4.268 3.459-7.726 7.726-7.726s7.726 3.459 7.726 7.726v17.994c0 4.267-3.459 7.726-7.726 7.726z" fill="#8bcaff"/></g><g><path d="m297.039 332.165c-4.267 0-7.726-3.459-7.726-7.726v-17.994c0-4.268 3.459-7.726 7.726-7.726s7.726 3.459 7.726 7.726v17.994c0 4.267-3.459 7.726-7.726 7.726z" fill="#8bcaff"/></g><g fill="#7b6c79"><path d="m274.965 235.327-11.379-15.86c-3.725-5.192-11.447-5.192-15.172 0l-11.379 15.86c-5.312 7.404-1.969 17.893 6.686 20.741 8.347 2.747 16.127 2.771 24.543.004 8.663-2.846 12.016-13.336 6.701-20.745z"/><ellipse cx="309.492" cy="175.044" rx="33.112" ry="36.494" transform="matrix(.802 -.597 .597 .802 -43.278 219.528)"/><ellipse cx="202.508" cy="175.044" rx="36.494" ry="33.112" transform="matrix(.597 -.802 .802 .597 -58.841 232.896)"/></g><path d="m265.238 256.069c-8.655-2.848-11.998-13.338-6.686-20.741l8.207-11.439-3.172-4.421c-3.725-5.192-11.447-5.192-15.172 0l-11.379 15.86c-5.312 7.404-1.969 17.893 6.687 20.741 7.846 2.582 15.192 2.757 23.035.471-.505-.148-1.012-.304-1.52-.471z" fill="#665e68"/><path d="m305.906 180.91c-4.026-15.884 2.719-31.066 15.512-37.704-6.427-3.056-13.625-4.255-20.754-2.996-18.338 3.239-29.251 21.461-24.376 40.7 4.875 19.238 23.694 32.208 42.031 28.968 3.197-.565 6.163-1.594 8.864-2.996-10.103-4.805-18.297-14.213-21.277-25.972z" fill="#665e68"/><path d="m198.922 169.178c2.98-11.759 11.173-21.167 21.278-25.972-2.702-1.402-5.667-2.431-8.864-2.996-18.338-3.24-37.156 9.73-42.032 28.968-4.875 19.238 6.038 37.46 24.376 40.7 7.129 1.259 14.327.06 20.754-2.996-12.793-6.638-19.537-21.82-15.512-37.704z" fill="#665e68"/><path d="m82.794 362.298c-2.193 4.019-3.194 8.778-2.513 13.817 1.337 9.899 9.345 17.862 19.251 19.145 6.563.85 12.649-1.146 17.223-4.917 3.663-3.02 8.61-3.958 13.064-2.315l64.462 24.047 63.78-23.525-108.41-40.257c-5.293-1.953-8.71-7.056-8.6-12.697.004-.209.006-.419.006-.629 0-18.27-15.305-32.966-33.793-31.965-16.211.878-29.428 14.193-30.196 30.41-.336 7.091 1.64 13.702 5.235 19.15 1.935 2.934 2.175 6.651.491 9.736z" fill="#b5dcff"/><path d="m434.695 475.799c-.936-7.037-4.061-13.188-8.571-17.907-2.428-2.541-3.328-6.156-2.222-9.492 1.305-3.939 1.537-8.304.4-12.688-2.663-10.264-12.455-17.403-23.037-16.738-6.33.398-11.752 3.288-15.52 7.573-3.556 4.045-9.28 5.405-14.333 3.541l-53.692-20.074-63.78 23.525 108.845 40.417c4.498 1.659 7.806 5.62 8.455 10.37.062.457.135.914.218 1.373 3.263 17.977 20.948 29.703 38.961 25.415 15.792-3.76 26.417-19.222 24.276-35.315z" fill="#b5dcff"/><path d="m233.869 379.567-21.398 7.893c-4.795 1.769-10.065 1.759-14.853-.027l-57.041-21.278c-4.454-1.643-9.401-.705-13.064 2.315-4.574 3.77-10.659 5.766-17.222 4.917-9.929-1.285-17.719-8.901-19.203-18.802-.774-5.166.222-10.05 2.465-14.16 1.664-3.049 1.471-6.776-.449-9.67-3.703-5.582-5.697-12.392-5.247-19.69-6.264 5.57-10.371 13.527-10.789 22.349-.336 7.091 1.64 13.702 5.235 19.15 1.936 2.933 2.175 6.65.492 9.735-2.193 4.019-3.194 8.778-2.513 13.817 1.337 9.899 9.345 17.862 19.251 19.145 6.563.85 12.65-1.146 17.224-4.917 3.663-3.02 8.609-3.958 13.064-2.315l64.462 24.047 63.78-23.525z" fill="#8bcaff"/><path d="m421.176 489.24c-18.013 4.288-35.697-7.438-38.961-25.415-.083-.458-.156-.916-.218-1.373-.649-4.75-3.956-8.711-8.455-10.37l-84.653-31.434-34.95 12.891 108.845 40.417c4.498 1.659 7.806 5.62 8.455 10.37.062.457.135.914.218 1.373 3.263 17.977 20.948 29.703 38.961 25.415 13.732-3.269 23.551-15.386 24.475-29.07-3.822 3.413-8.483 5.95-13.717 7.196z" fill="#8bcaff"/><path d="m77.305 475.8c.936-7.037 4.061-13.189 8.571-17.908 2.428-2.541 3.328-6.156 2.222-9.492-1.305-3.939-1.537-8.304-.4-12.688 2.663-10.264 12.455-17.403 23.037-16.737 6.33.398 11.752 3.288 15.52 7.573 3.556 4.045 9.28 5.404 14.333 3.541l221.761-81.795c5.293-1.953 8.71-7.056 8.6-12.697-.004-.209-.006-.419-.006-.629 0-18.27 15.305-32.966 33.793-31.965 16.211.878 29.428 14.194 30.196 30.41.336 7.091-1.64 13.702-5.235 19.15-1.936 2.933-2.175 6.65-.492 9.735 2.193 4.019 3.194 8.779 2.513 13.817-1.337 9.898-9.345 17.862-19.251 19.144-6.563.85-12.649-1.146-17.223-4.917-3.663-3.02-8.61-3.958-13.064-2.315l-232.966 85.928c-4.498 1.659-7.806 5.62-8.455 10.37-.062.457-.135.914-.218 1.373-3.263 17.977-20.948 29.703-38.961 25.415-15.791-3.759-26.416-19.221-24.275-35.313z" fill="#dbedff"/><path d="m98.821 492.798c.936-7.037 4.061-13.189 8.571-17.908 2.428-2.541 3.328-6.155 2.222-9.492-1.305-3.939-1.537-8.304-.4-12.688 2.663-10.264 12.454-17.403 23.037-16.737 6.33.398 11.752 3.288 15.52 7.573 3.556 4.045 9.28 5.404 14.333 3.541l221.761-81.795c5.293-1.953 8.71-7.056 8.6-12.697-.004-.209-.006-.419-.006-.629 0-18.27 15.305-32.966 33.793-31.965 1.828.099 3.615.364 5.353.766-5.025-10.011-15.165-17.13-26.869-17.764-18.488-1.001-33.793 13.695-33.793 31.965 0 .21.002.42.006.629.11 5.641-3.306 10.745-8.6 12.697l-221.761 81.795c-5.053 1.864-10.777.504-14.333-3.541-3.767-4.285-9.19-7.175-15.52-7.573-10.583-.666-20.374 6.474-23.037 16.737-1.137 4.384-.905 8.749.4 12.688 1.106 3.336.206 6.951-2.222 9.492-4.511 4.719-7.635 10.871-8.571 17.908-2.141 16.093 8.484 31.554 24.277 35.314.12.029.241.049.361.076-2.776-5.549-3.984-11.919-3.122-18.392z" fill="#b5dcff"/></g></svg>