<svg id="Capa_1" enable-background="new 0 0 512 512" viewBox="0 0 512 512" xmlns="http://www.w3.org/2000/svg"><g><path d="m250.28 59.858h96.885c51.172 0 92.655 41.483 92.655 92.655v75.57h-282.195v-75.57c0-51.172 41.483-92.655 92.655-92.655z" fill="#8c818f" style="fill: rgb(219, 219, 219);"></path><g fill="#ffcdbe"><path d="m435.154 251.79h-40.062v-40.466h40.062c7.551 0 13.672 6.121 13.672 13.672v13.122c0 7.551-6.121 13.672-13.672 13.672z" fill="#ffcdbe"></path><path d="m162.291 251.79h40.062v-40.466h-40.062c-7.551 0-13.672 6.121-13.672 13.672v13.122c0 7.551 6.121 13.672 13.672 13.672z" fill="#ffcdbe"></path></g><path d="m312.715 318.549c-8.782-1.57-19.203-1.57-27.985 0-102.625 18.342-141.608 149.207-83.637 183.451 8.145 4.811 36.495 10 36.495 10h122.27s28.247-5.365 36.493-10c66.529-37.399 18.989-165.109-83.636-183.451z" fill="#938dc8" style="fill: rgb(103, 148, 254);"></path><path d="m396.431 345.712-95.217 77.882 58.645 88.406h74.062c76.307 0 48.187-110.994-37.49-166.288z" fill="#f7f3f1"></path><path d="m396.431 345.712-12.46 10.191c74.235 57.65 95.006 156.097 23.138 156.097h26.812c76.308 0 48.187-110.994-37.49-166.288z" fill="#ebe1dc"></path><path d="m201.016 345.712 95.217 77.882-58.644 88.406h-74.062c-76.308 0-48.187-110.994 37.489-166.288z" fill="#f7f3f1"></path><path d="m399.925 137.034c4.147 4.027 6.487 9.561 6.487 15.342v119.472c0 27.399-55.138 70.327-81.651 77.241-12.602 3.287-39.476 3.287-52.078 0-26.513-6.914-81.651-49.842-81.651-77.241v-119.472c0-5.781 2.34-11.315 6.487-15.342l33.94-32.957c3.731-3.623 8.728-5.65 13.929-5.65h106.668c5.201 0 10.197 2.027 13.929 5.65z" fill="#ffcdbe"></path><path d="m399.925 137.034-33.94-32.957c-3.731-3.623-8.728-5.65-13.929-5.65h-24.32c5.201 0 10.197 2.027 13.929 5.65l33.94 32.957c4.147 4.027 6.487 9.561 6.487 15.342v119.472c0 27.399-55.138 70.327-81.651 77.241-3.656.954-8.517 1.629-13.879 2.029 13.119.98 29.253.305 38.199-2.029 26.513-6.914 81.651-49.842 81.651-77.241v-119.472c0-5.781-2.34-11.315-6.487-15.342z" fill="#ebae9d"></path><g fill="#655e67"><path d="m243.594 223.45c-4.142 0-7.5-3.357-7.5-7.5v-9.253c0-4.143 3.358-7.5 7.5-7.5s7.5 3.357 7.5 7.5v9.253c0 4.143-3.358 7.5-7.5 7.5z" fill="#655e67" style="fill: rgb(181, 181, 181);"></path><path d="m262.34 190.015c-1.343 0-2.703-.36-3.93-1.118-5.676-3.502-23.953-3.502-29.63 0-3.525 2.177-8.146 1.08-10.321-2.445s-1.08-8.146 2.446-10.32c10.391-6.41 34.99-6.409 45.38 0 3.525 2.174 4.621 6.795 2.446 10.32-1.418 2.297-3.876 3.563-6.391 3.563z" fill="#655e67" style="fill: rgb(181, 181, 181);"></path><path d="m353.85 223.45c-4.142 0-7.5-3.357-7.5-7.5v-9.253c0-4.143 3.358-7.5 7.5-7.5s7.5 3.357 7.5 7.5v9.253c0 4.143-3.358 7.5-7.5 7.5z" fill="#655e67" style="fill: rgb(181, 181, 181);"></path><path d="m372.596 190.015c-1.343 0-2.703-.36-3.93-1.118-5.677-3.502-23.954-3.502-29.63 0-3.525 2.177-8.145 1.08-10.321-2.445-2.175-3.525-1.08-8.146 2.446-10.32 10.392-6.41 34.991-6.409 45.38 0 3.525 2.174 4.621 6.795 2.446 10.32-1.418 2.297-3.876 3.563-6.391 3.563z" fill="#655e67" style="fill: rgb(181, 181, 181);"></path></g><path d="m298.722 262.445c-15.411 0-27.949-12.538-27.949-27.949v-6.414c0-4.143 3.358-7.5 7.5-7.5s7.5 3.357 7.5 7.5v6.414c0 7.141 5.809 12.949 12.949 12.949s12.949-5.809 12.949-12.949v-6.414c0-4.143 3.358-7.5 7.5-7.5s7.5 3.357 7.5 7.5v6.414c0 15.411-12.538 27.949-27.949 27.949z" fill="#ebae9d"></path><path d="m298.722 300.771c-9.591 0-19.182-3.137-28.506-9.408-3.437-2.312-4.349-6.973-2.037-10.409 2.312-3.438 6.972-4.348 10.409-2.038 13.737 9.241 26.533 9.239 40.269 0 3.436-2.312 8.097-1.4 10.409 2.038 2.312 3.437 1.4 8.097-2.037 10.409-9.325 6.272-18.916 9.408-28.507 9.408z" fill="#ebae9d"></path><path d="m354.376 15.321c-7.56 4.111-16.003 6.305-24.607 6.387-14.9.143-38.411.358-48.564.402-33.602.144-60.8 27.417-60.441 61.103.354 33.273 28.069 59.786 61.344 59.786h37.754c11.294 0 22.287-3.645 31.344-10.393 10.27-7.652 17.386-18.796 20.007-31.332l19.778-94.608c.943-4.511-3.726-8.124-7.858-6.081-8.344 4.128-20.145 10.053-28.757 14.736z" fill="#766d78" style="fill: rgb(209, 209, 209);"></path><g fill="#655e67"><path d="m280.032 142.948c1.904-2.446 3.651-5.038 5.213-7.782 3.815-6.688 6.483-14.014 7.931-21.774l2.782-14.884c.71-3.8-1.794-7.457-5.595-8.167-3.798-.708-7.457 1.795-8.167 5.595l-2.783 14.887c-1.161 6.223-3.29 12.079-6.332 17.411-2.572 4.516-5.741 8.523-9.43 11.945 5.21 1.629 10.706 2.58 16.381 2.769z" fill="#655e67" style="fill: rgb(181, 181, 181);"></path><path d="m335.414 90.341c-3.799-.708-7.457 1.795-8.167 5.595l-2.783 14.886c-2.327 12.467-8.581 23.474-17.622 31.003-.476.398-.97.787-1.479 1.175h14.5c1.814 0 3.619-.104 5.411-.29 6.429-8.347 10.915-18.406 12.952-29.318l2.782-14.884c.711-3.8-1.794-7.457-5.594-8.167z" fill="#655e67" style="fill: rgb(181, 181, 181);"></path></g><path d="m396.576 284.513c-32.5 24.942-93.792 80.952-95.657 144.337l13.234 11.625c12.458-27.681 100.94-82.051 134.138-101.726 6.627-3.928 8.059-12.914 2.968-18.696-7.76-8.815-19.805-21.698-34.514-34.782-5.675-5.049-14.143-5.383-20.169-.758z" fill="#f7f3f1"></path><path d="m200.869 284.513c32.5 24.942 93.792 80.952 95.657 144.337l-13.234 11.625c-12.458-27.681-100.94-82.051-134.138-101.726-6.627-3.928-8.059-12.914-2.968-18.696 7.76-8.815 19.805-21.698 34.514-34.782 5.675-5.049 14.142-5.383 20.169-.758z" fill="#f7f3f1"></path><path d="m451.259 320.053c-2.249-2.554-4.867-5.458-7.796-8.601-.061 4.1-2.143 8.122-6.015 10.416-31.374 18.594-109.078 67.413-136.493 106.154-.01.276-.028.552-.036.829l13.234 11.625c12.458-27.682 100.94-82.051 134.138-101.726 6.627-3.929 8.059-12.915 2.968-18.697z" fill="#ebe1dc"></path><path d="m146.185 320.053c2.249-2.554 4.867-5.458 7.796-8.601.061 4.1 2.143 8.122 6.015 10.416 31.374 18.594 109.078 67.413 136.493 106.154.01.276.028.552.036.829l-13.234 11.625c-12.458-27.682-100.94-82.051-134.138-101.726-6.627-3.929-8.058-12.915-2.968-18.697z" fill="#ebe1dc"></path><path d="m340.426 423.594h-83.407c-3.438 0-6.224 2.787-6.224 6.224v21.053c0 3.437 2.787 6.224 6.224 6.224h83.407c3.438 0 6.224-2.787 6.224-6.224v-21.053c0-3.437-2.787-6.224-6.224-6.224z" fill="#f3d69e" style="fill: rgb(255, 162, 0);"></path><path d="m111.87 349.975-19.102-3.809c-3.224-.643-5.963-2.752-7.408-5.705l-11.307-23.107c-1.99-4.067-1.161-8.951 2.06-12.133l5.162-5.099c3.894-3.847 10.086-4.074 14.251-.521l9.104 7.766c3.646 3.11 9.087 2.832 12.397-.634l15.015-15.723c3.334-3.491 3.334-8.987.001-12.478l-21.466-22.483c-7.823-8.193-19.675-11.113-30.425-7.541-49.582 16.472-55.249 58.933-36.93 100.272 21.025 47.444 69.085 39.573 69.085 39.573l65.307 123.647h30.038l-67.154-139.811c-5.52-11.493-16.124-19.721-28.628-22.214z" fill="#d09180" style="fill: rgb(255, 200, 0);"></path></g></svg>